<svg xmlns="http://www.w3.org/2000/svg" viewBox="0 0 162 281.19"><defs><style>.cls-1{fill:#a035f8;}.cls-2{fill:#560896;}</style></defs><title>Asset 1</title><g id="Layer_2" data-name="Layer 2"><g id="Layer_1-2" data-name="Layer 1"><polygon class="cls-1" points="28.59 89.75 28.59 133.45 162 64.11 162 20.47 28.59 89.75"/><polygon class="cls-1" points="28.59 165.37 28.59 209.07 162 139.73 162 96.09 28.59 165.37"/><polygon class="cls-1" points="53 118.19 17.47 118.2 16 118.94 16 281.19 53 281.19 53 118.19"/><polygon class="cls-2" points="0 84.13 0 137.19 162 52.99 162 0 0 84.13"/><polygon class="cls-2" points="0 158.13 0 211.19 162 126.99 162 74 0 158.13"/><polygon class="cls-2" points="45 84.19 1.78 84.2 0 85.1 0 281.19 45 281.19 45 84.19"/></g></g></svg>