<svg xmlns="http://www.w3.org/2000/svg" viewBox="0 0 28 28"><defs><style>.cls-1{fill:#fff;}.cls-2{fill:#8056a3;}</style></defs><title>Asset 1</title><g id="Layer_2" data-name="Layer 2"><g id="Layer_1-2" data-name="Layer 1"><path class="cls-1" d="M4,15.71V9.49L19.81,1.27A14,14,0,0,0,4,23.79V15.71Z"/><path class="cls-1" d="M23,3.28V5.83L9,13.11v3.25L23,9.09v6.22L9,22.58v4.48A13.84,13.84,0,0,0,14,28,14,14,0,0,0,23,3.28Z"/><path class="cls-2" d="M23,15.31V9.09L9,16.36V13.11L23,5.83V3.28a14.21,14.21,0,0,0-3.19-2L4,9.49v14.3a13.87,13.87,0,0,0,5,3.27V22.58Z"/></g></g></svg>